<svg xmlns="http://www.w3.org/2000/svg" version="1.1" xmlns:xlink="http://www.w3.org/1999/xlink" width="512" height="512" x="0" y="0" viewBox="0 0 512 512" style="enable-background:new 0 0 512 512" xml:space="preserve" class=""><g><path fill="#f0f1fa" d="m425.39 358.714 2.556-3.803-4.526.712c-6.575 1.034-13.366 1.427-19.727 1.697a1881.989 1881.989 0 0 1-81.652 1.774c-44.042 0-88.484-1.558-132.092-4.632l-3.137-.225c-9.82-.701-19.974-1.426-30.044-1.426-5.851 0-11.126.241-16.127.736-30.566 3.017-52.135 16.335-61.318 26.822-10.664 12.167-13.673 29.594-7.317 42.379 7.089 14.252 23.801 22.658 51.092 25.698 2.771.306 5.649.585 8.798.855l2.094.179.076-2.1a821.69 821.69 0 0 1 2.665-42.897c.09-1.084.124-2.366.146-3.951.067-3.663.143-7.816 1.505-10.743 1.462-3.154 5.343-3.666 8.182-4.04.553-.074 1.074-.15 1.54-.234a129.958 129.958 0 0 1 23.04-2.065c2.028 0 4.08.049 6.094.145 3.682.186 7.729.821 9.824 4.126 1.317 2.068 1.317 4.535 1.317 6.518l.042 56.894 2.014-.015c4.026-.03 8.073-.09 12.081-.161 37.763-.668 76.244-2.453 114.376-5.305 17.107-1.289 34.33-2.887 50.984-4.433l5.618-.52c6.511-.594 13.116-1.607 19.503-2.587l.711-.109c6.031-.934 12.267-1.899 18.502-2.537 4.199-.438 8.043-.796 11.753-1.096l3.413-.275-1.917-2.838c-7.478-11.071-11.426-24.497-11.118-37.805.28-12.387 4.101-24.4 11.049-34.738z" opacity="1" data-original="#f0f1fa" class=""></path><path fill="#c67045" d="m457.357 232.734-.399-1.895c-.794-3.767-1.605-7.613-2.357-11.358l-8.53-42.449c-2.822-14.085-5.651-28.162-8.48-42.244l-1.739-8.654s-.856-4.289-1.104-5.551c-3.585-18.107-6.972-35.21-15.37-51.955-2.973-5.938-4.764-12.321-6.343-18.351l-.676-2.582-2.288 1.375a18.915 18.915 0 0 1-9.74 2.694 17.93 17.93 0 0 1-5.933-.989c-6.049-2.104-10.758-7.524-11.996-13.813-.25-1.249-.374-2.512-.5-3.922-.259-2.8-.505-5.445-2.044-7.332-1.35-1.65-3.569-2.522-6.417-2.522-1.211 0-2.5.162-3.73.47-1.71.43-3.431 1.07-4.949 1.634-2.306.856-4.691 1.74-7.24 2.139-.94.146-1.906.22-2.871.22-5.288 0-10.596-2.249-14.198-6.017-3.595-3.756-5.551-8.946-5.366-14.238l.073-2.103-135.936 2.163c-20.255.332-41.799.847-62.947 3.132-6.27.689-11.391 1.535-16.116 2.663l-1.536.366v1.626l-20.93 326.67 2.861-1.02c19.709-7.025 41.21-7.972 59.642-7.972 1.924 0 3.833.011 5.719.028 29.904.26 59.931 1.911 88.969 3.507 30.924 1.699 62.901 3.456 94.915 3.456 6.559 0 13.014-.075 19.185-.224l1.821-.074.127-1.815c.027-.391.054-.78.102-1.195.781-7.548 4.245-14.028 9.502-17.778 4.014-2.862 9.001-4.254 15.247-4.254 4.105 0 8.11.619 10.764 1.084 1.015.18 2.04.369 3.095.563 4.814.888 9.361 1.728 13.853 1.728 2.874 0 5.428-.348 7.807-1.064 9.159-2.76 15.884-12.049 15.643-21.603-.076-3.172-.818-6.287-1.617-9.639-1.161-4.92-2.361-10.008-1.119-15.124 1.691-6.998 8.358-12.48 15.854-13.035l2.221-.165-.401-2.19c-1.407-7.705-3.065-15.509-4.528-22.391zm-112.2-84.605c-.29.34-.684.528-1.185.528l-50.978-1.442 5.858 93.166a1.528 1.528 0 0 1-1.514 1.617h-53.12c-.417 0-.819-.179-1.116-.503a1.502 1.502 0 0 1-.391-1.143l7.809-94.675h-52.473c-.446 0-.862-.191-1.145-.523a1.534 1.534 0 0 1-.351-1.227l5.96-36.741a1.508 1.508 0 0 1 1.465-1.27l48.743-.966 2.395-42.283a1.516 1.516 0 0 1 1.465-1.432l31.882-.993c.78 0 1.421.636 1.458 1.446l1.922 41.839 44.809 2.884c.69.048 1.263.553 1.392 1.228l7.451 39.222c.087.452-.036.914-.336 1.268zM403.424 452.323c-.548-2.866-.349-6.052.628-10.027l.707-2.879-2.935.423c-2.577.371-5.134.762-7.652 1.153-6.64 1.03-13.506 2.096-20.398 2.725l-6.953.643c-16.284 1.509-33.122 3.069-49.704 4.304a2012.747 2012.747 0 0 1-114.551 5.315c-4.034.08-8.117.14-12.17.18l-1.99.02.009 1.99c.01 2.217.01 4.423.01 6.641v1.932l1.93.067c15.546.542 31.163.872 46.414.981 8.952.072 16.473.106 23.669.106 35.159 0 63.385-.894 88.832-2.812l8.97-.69c13.822-1.064 29.488-2.27 45.061-2.916l3.249-.134-1.586-2.84a14.306 14.306 0 0 1-1.54-4.182z" opacity="1" data-original="#c67045" class=""></path><path fill="#c67045" d="M321.938 356.06c16.214 0 32.627-.213 48.783-.632l2.496-.065-.607-2.421c-.765-3.049-1.269-5.807-1.541-8.429l-.19-1.838-1.848.044c-6.181.149-12.643.225-19.208.225h-.005c-31.932 0-64.043-1.765-95.1-3.473l-.371-.02c-28.929-1.585-58.842-3.224-88.451-3.483a621.925 621.925 0 0 0-5.661-.027c-22.904 0-49.279 1.584-71.25 13.334-10.728 5.736-20.584 14.339-27.753 24.224-7.861 10.839-11.766 22.137-11.293 32.67l.005.105.016.104c.156 1.035.293 2.08.412 3.127.108.908.245 1.848.443 3.049l.08.393c.027.134.054.267.102.469a.967.967 0 0 1 .031.252v.183l.033.18c1.572 8.512 4.684 15.901 9.251 21.962 14.594 19.339 41.57 23.747 68.554 25.631l4.778.319.044-2.092.04-1.447c.01-.783.029-1.547.06-2.37.01-.537.02-1.074.039-1.602l.07-1.901-1.897-.165a395.93 395.93 0 0 1-9.232-.915c-28.404-3.158-45.895-12.105-53.471-27.353-6.889-13.846-3.705-32.647 7.745-45.723 15.265-17.45 43.635-25.902 63.293-27.837 5.116-.506 10.493-.753 16.439-.753 10.223 0 20.445.736 30.337 1.448l3.046.21c43.5 3.064 87.837 4.617 131.781 4.617z" opacity="1" data-original="#c67045" class=""></path><path fill="#c67045" d="M87.56 346.601a86.94 86.94 0 0 1 5.903-2.873l1.111-.49 21.079-328.847-2.829.959c-9.853 3.34-17.451 8.202-23.23 14.864-8.572 9.894-11.681 23.431-14.354 37.599a1646.412 1646.412 0 0 0-15.219 96.359 1653.867 1653.867 0 0 0-12.145 147.28c-.193 5.138-.444 10.419-.686 15.527l-.07 1.506c-.476 10.276-.968 20.902-1.065 31.324-.09 9.428.146 17.695.723 25.272.004.082.012.169.023.265l.485-.031 3.361.659c6.315-15.481 20.459-30.567 36.913-39.373z" opacity="1" data-original="#c67045" class=""></path><path fill="#d34242" d="m185.387 452.678-.03-58.43c0-1.677 0-3.578-.852-4.903-1.376-2.165-4.684-2.593-7.414-2.725a126.797 126.797 0 0 0-28.451 1.88c-.518.094-1.073.168-1.666.244l-.109.015c-3.377.463-5.096.927-5.729 2.299-1.11 2.365-1.176 6.342-1.229 9.53l-.007.355c-.026 1.371-.051 2.665-.156 3.807a808.674 808.674 0 0 0-2.797 46.424 839.902 839.902 0 0 0-.301 12.41l-.02 1.172a784.58 784.58 0 0 0 .19 33.957c.04 2.365.313 3.455 1.08 4.203.45.417 1.064.629 1.823.629.774 0 1.567-.222 2.239-.629 1.498-.915 2.598-2.479 3.774-4.272l12.727-19.206a1.52 1.52 0 0 1 1.266-.68l.172.007c.562.064 1.05.443 1.247.969a93.757 93.757 0 0 0 12.337 22.685c2.303 3.154 4.21 4.56 6.185 4.56H179.695c1.878-.017 3.839-1.593 4.771-3.838.951-2.306.951-4.984.951-7.574l-.02-29.359c0-4.52 0-9.022-.01-13.53z" opacity="1" data-original="#d34242"></path><path fill="#ffbf48" d="m462.818 260.418-1.72.019c-6.374.071-12.498 4.811-13.942 10.789-1.072 4.422 0 8.959 1.138 13.775.782 3.283 1.59 6.679 1.686 10.188.277 10.881-7.378 21.454-17.805 24.594-2.664.799-5.497 1.186-8.662 1.186-4.792 0-9.691-.902-14.434-1.776-1.007-.189-2.014-.37-3.052-.555-2.523-.445-6.326-1.038-10.193-1.038-5.621 0-10.048 1.207-13.536 3.689-4.544 3.241-7.547 8.921-8.244 15.589a5.619 5.619 0 0 0-.037.415l-.211 2.26 2.27-.077c29.633-1 56.101-3.828 80.915-8.646l.921-.179.451-.823c3.466-6.325 5.8-13.836 6.751-21.72 1.593-13.139.951-27.754-2.021-45.993zM464.951 442.396l-.122-.333c-1.262-3.458-5.496-5.329-12.585-5.563a190.61 190.61 0 0 0-6.076-.094c-12.024 0-23.76 1.048-33.641 2.073-.777.075-1.555.167-2.332.26l-2.124.248-.366 1.285a2.752 2.752 0 0 0-.063.278c-1.057 3.679-1.931 7.579-1.247 11.222.589 3.029 2.777 6.563 6.21 7.297l.207.081h.436c4.521-.111 8.279-.163 11.828-.163l2.543.003c1.107.006 2.217.012 3.328.012 10.137 0 20.708-.482 28.757-6.236 3.348-2.395 6.338-6.595 5.247-10.326zM452.345 338.418l3.905-4.325-5.738 1.016c-22.953 4.062-47.303 6.486-74.44 7.41l-2.162.074.243 2.15c.311 2.749.881 5.614 1.796 9.015l.41 1.526 1.58-.046c8.751-.256 17.375-.573 25.627-.941 16.199-.694 31.71-2.051 43.422-10.913 1.834-1.39 3.636-3.06 5.357-4.966zM382.211 23.8c2.122 2.595 2.419 5.832 2.707 8.964l.012.128c.11 1.222.215 2.375.438 3.49 1.024 5.165 5.051 9.802 10.027 11.541 1.546.536 3.198.807 4.911.807 3.685 0 7.328-1.284 10.017-3.526l.119-.074.992-.992-.302-1.117c-2.547-9.425-5.74-19.257-14.192-26.783-11.085-9.856-26.91-11.215-42.361-11.215-1.93 0-3.86.02-5.813.051l-10.531.17-.104 1.859c-.253 4.571 1.434 9.219 4.511 12.432 3.037 3.18 7.535 5.079 12.034 5.079.808 0 1.612-.062 2.383-.183 2.288-.348 4.507-1.18 6.646-1.982 1.691-.628 3.44-1.278 5.278-1.735a18.364 18.364 0 0 1 4.381-.543c2.684 0 6.397.629 8.847 3.629zM291.419 144.144l50.749 1.43-6.873-36.216-45.002-2.9a1.518 1.518 0 0 1-1.417-1.446l-1.921-41.699-28.891.898-2.403 42.302a1.52 1.52 0 0 1-1.483 1.431l-48.878.973-5.473 33.737h52.331a1.515 1.515 0 0 1 1.517 1.635l-7.809 94.676h49.862l-5.854-93.213c-.026-.434.122-.84.429-1.155a1.517 1.517 0 0 1 1.116-.453z" opacity="1" data-original="#ffbf48" class=""></path><path fill="#ef9737" d="M262.79 63.974c-.767-1.402-3.156-1.531-3.886 0-2.7 5.665-1.544 13.557-1.726 19.725-.221 7.5-.66 14.996-1.222 22.478-.381 5.079 7.568 5.071 7.922 0a351.96 351.96 0 0 0 .856-22.478c.036-6.116 1.06-14.232-1.944-19.725zM294.808 230.882c-4.308-1.306-8.61-2.631-12.903-3.987-4.336-1.37-9.288-2.34-12.295-6.025-3.19-3.909-5.366-9.241-6.823-14.621-.253-20.574-.467-41.153-.987-61.717-.104-4.126-1.069-8.335-5.713-9.336-5.933-1.279-12.728.569-18.84-.158-12.305-1.464-24.704-10.779-22.586-24.525.736-4.778-5.559-7.07-7.558-2.994-.884.286-1.59.98-1.753 2.17a261.288 261.288 0 0 0-1.006 8.527 135.539 135.539 0 0 0-2.578 20.432c-.155 3.05 3.489 4.919 5.992 3.439.032-.019.061-.04.093-.059.243.066.484.134.751.187 6.806 1.34 14.62.611 21.553.84l8.037.265c1.985.159 3.978.229 5.969.222.16-.001.321-.007.481-.009l5.881.194c1.985 10.863 1.394 22.36 1.193 33.309a497.215 497.215 0 0 1-2.204 38.409 513.1 513.1 0 0 1-.925 8.833c-.165 1.453-.489 3.029-.671 4.597-.234.159-.46.345-.668.58-1.152 1.294-2.156 2.664-3.162 4.074-2.563 3.597 2.332 7.727 5.778 5.778a35.478 35.478 0 0 0 2.638-1.678c1.126.37 2.362.579 3.606.721 12.466 1.419 25.078 1.553 37.589.73 4.62-.304 5.762-6.788 1.111-8.198zM335.397 138.256c-3.761-.39-7.656.463-11.464.483-3.843.021-7.681-.202-11.522-.31-6.717-.189-15.141-1.495-21.552.828-1.479.536-2.215 2.921-.487 3.727 6.684 3.118 15.746 2.543 22.994 2.963 7.484.434 16.797 1.989 23.745-1.358 3.353-1.614 1.28-6.022-1.714-6.333zM409.023 40.89c-3.941-.159-8.422.774-11.621-2.142-2.648-2.413-3.54-6.881-4.866-10.061-2.157-5.176-5.453-13.021-10.887-15.532-6.033-2.786-13.735.659-19.711 2.066-8.592 2.023-15.322-.385-18.981-8.765-.924-2.117-3.767-.768-3.931 1.065-.651 7.286 4.094 13.247 11.025 15.36 3.75 1.143 7.679.847 11.484.158 4.607-.835 9.729-3.343 14.444-3.121 7.87.371 10.013 15.843 13.46 21.395 4.392 7.074 12.922 8.497 20.574 6.896 4.253-.889 3.069-7.155-.99-7.319zM459.143 317.618c-8.582 9.415-22.168 10.772-34.096 12.338-14.685 1.927-29.503 3.152-44.313 3.436-3.249.063-5.361 4.619-3.041 6.781-.595.473-1.09 1.162-1.396 2.098a10.553 10.553 0 0 0-.37 1.554c-1.083.782-1.042 2.354-.26 3.423-.039.052-.089.092-.124.147-.499.646-.926 1.559-.85 2.4.085.951.191 1.6.692 2.432.58.963 1.502 1.714 2.594 2.01.846.23 1.832.216 2.706-.068.587.429 1.28.7 2.048.701 1.246.54 2.582.913 3.958 1.069 4.004.454 8.173-.318 12.157-.724l15.595-1.589c8.439-.86 17.631-.956 25.633-4.074 3.439-1.34 6.394-3.306 9.015-5.665a95.31 95.31 0 0 0 3.993-1.592c1.824-.776 2.221-2.863 1.656-4.613a81.029 81.029 0 0 0 3.019-4.204 3.333 3.333 0 0 0 .437-2.932c2.465-2.591 4.733-5.402 6.936-8.309 2.617-3.451-3.099-7.789-5.989-4.619zM458.214 446.005c-8.014 1.61-16.01 3.054-24.171 3.679-3.773.289-7.554.446-11.339.468-2.771.016-7.143.654-10.062.078-.993-.651-2.323-.611-3.401.311l-.344.294c-.759.649-1.122 2.019-.782 2.958 1.055 2.907 3.176 3.38 6.081 3.721 5.313.624 10.736.504 16.07.275 10.086-.434 20.255-1.681 30.041-4.191 4.949-1.268 2.835-8.583-2.093-7.593z" opacity="1" data-original="#ef9737"></path><path fill="#b25932" d="M67.846 92.376C59.22 147.095 54.16 202.306 49.107 257.47c-4.226 46.133-8.422 92.984.21 138.499 2.965-22.353 20.633-40.682 41.147-50.042s43.613-11.135 66.159-11.512c68.106-1.139 136.023 9.191 204.127 7.953 3.319-.06 6.886-.232 9.515-2.258 5.678-4.375 2.455-14.352-3.948-17.575s-14.031-1.932-21.121-.879c-29.746 4.419-60.592 3.193-89.232-5.979-28.64-9.171-54.97-26.564-72.746-50.821-11.323-15.451-18.981-33.259-25.614-51.229a559.977 559.977 0 0 1-28.266-109.658c-4.636-30.492-6.644-62.293 2.874-91.63.001-.002-26.325 8.065-29.193 9.344-5.726 2.553-11.633 4.428-15.957 9.196-13.606 15.001-16.21 42.43-19.216 61.497zM378.017 439.99c9.734-.832 19.591-1.66 29.227-.046l-.614 16.172c-.187 4.921-82.859 10.452-91.027 10.948a778.072 778.072 0 0 1-94.051.021c-9.802-.592-31.389 2.595-33.238-10.822 62.887-7.52 126.586-10.879 189.703-16.273z" opacity="1" data-original="#b25932" class=""></path><g fill="#c0c5d7"><path d="M384.584 379.4c-18.002-1.198-36.288-.107-54.341-.111-17.809-.004-35.62-.214-53.428-.414-35.932-.402-71.881-1.2-107.809-.145-9.873.29-19.752.671-29.61 1.299-9.622.612-20.99.715-30.005 4.365-1.36.55-1.788 2.845 0 3.209 8.386 1.708 17.551.453 26.06.156 8.882-.309 17.756-.788 26.642-1.021 18.114-.475 36.241-.516 54.36-.37 36.279.291 72.563 1.593 108.845.966 19.813-.342 40.317-.237 59.822-3.975 2.346-.449 1.613-3.816-.536-3.959zM336.456 405.707c-24.77-3.127-50.444-2.647-75.372-2.215-12.232.212-24.452.696-36.668 1.357-11.993.649-25.787.312-37.262 4.154-2.054.688-2.527 4.225 0 4.656 11.66 1.986 24.512.021 36.271-.552a3218.17 3218.17 0 0 1 37.659-1.61c25.063-.928 50.378-.451 75.372-2.416 2.207-.173 2.127-3.105 0-3.374zM374.806 417.909c-10.45-1.217-21.224-.227-31.704.176-10.241.394-20.484.858-30.714 1.48-20.808 1.264-41.604 3.77-62.417 4.668-1.17.051-1.182 1.857 0 1.828 21.098-.514 42.291.587 63.408.447 10.568-.07 21.14-.338 31.704-.645 10.135-.294 20.526-.154 30.526-2.015 3.635-.676 2.294-5.578-.803-5.939zM137.439 413.015c-3.662-2.219-8.664-1.762-12.854-1.877-4.624-.128-9.268.063-13.892.129-4.637.066-9.262.117-13.892.396-5.394.325-10.528 1.508-15.876 2.094-.965.105-.963 1.39 0 1.5 5.35.61 10.479 1.827 15.876 2.167 4.628.291 9.256.372 13.892.46 4.62.088 9.271.316 13.892.193 4.199-.112 9.173.385 12.854-1.822 1.218-.733 1.209-2.507 0-3.24zM124.812 427.862c-9.378-1.799-18.818.552-28.237.446-.786-.009-.783 1.195 0 1.219 9.439.283 18.769 2.998 28.237 1.59 1.643-.245 1.578-2.953 0-3.255zM220.758 367.003c-12.794-3.059-27.204-1.339-40.229-.799-13.918.577-27.747 2.479-41.691 2.588-.965.008-.967 1.508 0 1.5 13.931-.11 27.778 1.574 41.691 1.931 13.03.335 27.485 1.837 40.229-1.424 1.855-.474 1.896-3.343 0-3.796zM300.467 391.405c-13.255-.465-26.275-.711-39.532.021-13.249.731-26.316 3.406-39.532 3.977-.48.021-.484.767 0 .75 13.162-.458 26.325 1.195 39.532.893 13.312-.304 26.315-1.568 39.532-3.064 1.614-.181 1.698-2.517 0-2.577zM228.848 422.73c-13.805.185-29.04-.233-42.26 4.134-1.54.508-1.116 2.479.361 2.67 13.657 1.769 28.264-.921 41.899-2.351 2.785-.292 2.927-4.492 0-4.453zM310.241 432.377c-14.223-.983-28.463-.07-42.655 1.149-14.211 1.221-28.41 3.81-42.655 4.391-.361.015-.363.577 0 .563 14.501-.591 29.127.854 43.647.918 14.151.062 28.285-.3 42.286-2.416 2.753-.418 1.85-4.434-.623-4.605zM408.038 362.932c-20.678-.037-41.347 1.095-61.971 2.521-10.18.704-20.352 1.474-30.519 2.339-10.496.894-20.998 2.701-31.516 3.113-.48.019-.485.757 0 .75 10.491-.146 21.012 1.001 31.516 1.114 10.501.113 21.006.039 31.503-.278 20.614-.623 41.199-1.952 61.629-4.817 2.741-.384 2.006-4.737-.642-4.742z" fill="#c0c5d7" opacity="1" data-original="#c0c5d7" class=""></path></g><path d="M452.414 431.5c-6.987-.225-13.967-.043-20.688.344a3.493 3.493 0 0 0-.582-1.231c-7.904-10.638-12.091-23.793-11.79-37.042s5.082-26.2 13.462-36.468a3.466 3.466 0 0 0 .732-1.671c5.905-1.728 11.453-4.255 16.469-8.05 10.945-8.286 18.079-22.022 20.089-38.678 1.975-16.368.4-32.993-2.395-49.484a3.432 3.432 0 0 0-.187-1.08c-1.533-8.878-3.398-17.716-5.25-26.45-.923-4.353-1.877-8.854-2.75-13.196l-8.395-41.8c-3.451-17.186-6.901-34.371-10.355-51.551-.371-1.852-.735-3.689-1.096-5.513-3.653-18.458-7.104-35.892-15.807-53.256-3.07-6.132-4.791-12.78-6.612-19.819-3.134-12.107-6.374-24.626-16.977-34.068C386.766.455 367.389-.253 348.691.05L199.147 2.434c-20.295.324-41.907.835-63.408 3.158C104.62 8.97 92.331 19.384 85.794 26.924c-9.388 10.833-12.681 25.08-15.484 39.951a1643.673 1643.673 0 0 0-15.272 96.663A1659.658 1659.658 0 0 0 42.854 311.27c-.198 5.28-.454 10.719-.701 15.979-.5 10.648-1.018 21.659-1.124 32.517-.088 9.641.154 18.061.742 25.739.361 4.754 1.189 9.507 1.99 14.104.399 2.292.802 4.634 1.148 6.964.123 2.318.449 4.637.968 6.948 1.605 9.858 5.093 18.43 10.424 25.497 15.806 20.955 44.045 25.655 72.209 27.613 1.024.071 2.049.137 3.073.206a808.171 808.171 0 0 0 .214 32.03c.044 1.832.127 5.244 2.55 7.604 2.531 2.496 6.829 2.803 10.207.738 2.559-1.548 4.178-4 5.357-5.786l9.105-13.738a98.746 98.746 0 0 0 10.427 17.721c2.078 2.834 5.394 6.593 10.206 6.593h.066c3.918-.016 7.691-2.811 9.38-6.936 1.337-3.214 1.337-6.547 1.337-9.487v-.004l-.02-25.746c15.501.535 31.063.872 46.317.985 7.815.063 15.748.106 23.774.106 29.026 0 59.23-.568 89.15-2.827 2.991-.227 5.983-.458 8.975-.688 22.276-1.719 45.285-3.521 67.969-3.396l1.01.005c11.634.057 24.824.131 35.016-7.156 5.127-3.654 9.255-10.173 6.924-16.504-2.035-5.565-7.798-8.544-17.133-8.851zm-40.058-38.088c-.315 13.823 3.747 27.553 11.478 38.987-4.107.332-8.084.71-11.831 1.098-6.254.646-12.526 1.614-18.593 2.551-6.59 1.018-13.404 2.07-20.095 2.686l-5.714.529c-16.666 1.545-33.9 3.143-50.857 4.415a2009.195 2009.195 0 0 1-114.27 5.299c-4.017.078-8.06.13-12.079.168l-.032-54.896c0-2.123 0-5.031-1.632-7.584-2.594-4.103-7.45-4.851-11.395-5.045a130.894 130.894 0 0 0-29.589 1.951 33.17 33.17 0 0 1-1.451.212c-3.108.414-7.804 1.039-9.721 5.176-1.537 3.304-1.617 7.684-1.687 11.548-.025 1.409-.05 2.74-.145 3.813a822.787 822.787 0 0 0-2.67 43.015 385.763 385.763 0 0 1-8.764-.857c-26.575-2.961-42.776-11.009-49.532-24.602-6.012-12.081-3.124-28.608 7.025-40.191 8.942-10.217 30.027-23.197 60.021-26.153 15.157-1.502 30.799-.382 45.928.702l3.047.217h.002c70.954 4.998 142.949 5.962 213.984 2.862 6.831-.293 13.549-.715 19.982-1.732-7.101 10.559-11.12 23.069-11.41 35.831zm33.437-51.611c-11.262 8.52-26.439 9.837-42.31 10.519-8.522.372-17.059.682-25.606.936-.718-2.65-1.396-5.635-1.751-8.75 24.966-.846 49.949-3.052 74.778-7.448a36.224 36.224 0 0 1-5.111 4.743zm17.364-33.934c-.941 7.794-3.207 14.954-6.527 21.013-26.689 5.187-53.649 7.702-80.627 8.621.011-.124.01-.248.023-.372.639-6.121 3.348-11.302 7.433-14.215 6.208-4.426 15.142-3.563 22.233-2.316 1.004.176 2.014.363 3.026.55 7.865 1.452 15.997 2.953 24.038.538 11.255-3.382 19.515-14.792 19.215-26.541-.094-3.678-.929-7.201-1.736-10.608-1.081-4.565-2.103-8.875-1.144-12.844 1.274-5.272 6.664-9.221 12.053-9.267 2.486 15.285 3.805 30.586 2.013 45.441zM348.805 7.049c1.939-.032 3.867-.053 5.78-.053 15.875 0 30.651 1.468 41.043 10.718 7.767 6.917 10.946 16.014 13.599 25.823-.026.021-.055.034-.081.056-3.498 2.972-8.757 3.954-13.09 2.443s-7.843-5.551-8.733-10.053c-.207-1.044-.312-2.193-.424-3.41-.301-3.267-.641-6.969-3.148-10.042-3.78-4.631-10.352-4.975-15.245-3.753-1.928.482-3.735 1.153-5.484 1.802-2.167.804-4.215 1.564-6.256 1.88-4.535.704-9.511-.987-12.682-4.302-2.732-2.857-4.188-7.001-3.963-10.97zm-212.313 5.503c21.204-2.291 42.634-2.797 62.766-3.118L333.104 7.3c-.196 5.74 1.932 11.526 5.92 15.696 4.776 4.994 11.985 7.439 18.812 6.382 2.741-.425 5.221-1.345 7.62-2.235 1.643-.609 3.194-1.185 4.747-1.573 2.679-.669 6.414-.708 8.123 1.387 1.156 1.417 1.363 3.66 1.602 6.257.123 1.34.251 2.727.527 4.126 1.377 6.961 6.596 12.969 13.296 15.305 2.12.74 4.352 1.099 6.585 1.099 3.776 0 7.546-1.041 10.781-2.995 1.653 6.311 3.483 12.742 6.496 18.761 8.278 16.518 11.64 33.5 15.198 51.479.362 1.83.727 3.673 1.1 5.533 3.454 17.181 6.904 34.365 10.355 51.551l8.395 41.802c.88 4.378 1.838 8.898 2.765 13.269 1.568 7.394 3.147 14.864 4.518 22.353-8.097.597-15.718 6.523-17.658 14.552-1.353 5.597-.088 10.938 1.136 16.103.758 3.2 1.474 6.222 1.549 9.173.223 8.701-5.895 17.152-14.231 19.657-6.418 1.93-13.381.645-20.753-.717-1.032-.19-2.061-.38-3.085-.561-8.435-1.482-19.185-2.424-27.51 3.511-5.718 4.077-9.483 11.07-10.33 19.187-.046.436-.081.872-.11 1.306-38.23.92-76.454-1.177-113.958-3.236-29.111-1.598-59.213-3.25-89.068-3.51-20.983-.179-44.542.391-66.065 8.066L120.61 15.3c.003-.044-.006-.085-.005-.129 5.453-1.304 10.881-2.076 15.887-2.619zM48.029 359.833c.104-10.725.619-21.67 1.116-32.255.248-5.276.504-10.732.704-16.046a1652.764 1652.764 0 0 1 12.133-147.107 1636.645 1636.645 0 0 1 15.207-96.252c2.618-13.893 5.65-27.152 13.894-36.664 6.149-7.092 14.094-11.481 22.39-14.294L92.664 341.907a93.5 93.5 0 0 0-6.052 2.95c-15.936 8.524-30.951 23.511-37.832 40.427-.008-.104-.023-.207-.031-.31-.571-7.48-.807-15.704-.72-25.141zm13.86 74.97c-4.408-5.845-7.377-12.942-8.882-21.125a3.487 3.487 0 0 0-.101-.766c-.056-.223-.094-.447-.146-.671a66.824 66.824 0 0 1-.424-2.963 111.243 111.243 0 0 0-.423-3.195c-.957-21.376 17.406-44.038 38-55.053 23.306-12.466 51.424-13.284 75.954-13.068 29.693.258 59.713 1.906 88.745 3.5 37.654 2.068 76.029 4.174 114.489 3.25.315 3.102.916 6.055 1.59 8.736-60.071 1.557-120.605.233-180.398-3.979l-3.041-.217c-15.42-1.103-31.364-2.245-47.116-.685-20.017 1.972-48.946 10.622-64.6 28.507-11.968 13.661-15.268 33.367-8.026 47.92 7.898 15.893 25.896 25.197 55.027 28.443 3.072.34 6.186.648 9.293.917-.016.556-.027 1.115-.041 1.673-.02.778-.04 1.548-.057 2.325-.011.494-.026.988-.037 1.482l-2.703-.186c-26.509-1.843-52.986-6.128-67.103-24.845zm120.735 67.59c-.607 1.482-1.871 2.602-2.949 2.607h-.014c-1.236 0-2.732-1.221-4.581-3.743A91.843 91.843 0 0 1 163 479.046a3.501 3.501 0 0 0-6.193-.701l-12.736 19.216c-1.095 1.658-2.021 2.98-3.156 3.667-.751.459-1.542.369-1.67.244-.394-.383-.437-2.183-.452-2.784a801.44 801.44 0 0 1-.191-33.891l.023-1.174c.067-4.114.169-8.276.303-12.376a813.443 813.443 0 0 1 2.788-46.309c.117-1.318.143-2.768.171-4.303.055-3.013.123-6.763 1.037-8.728.303-.653 3.204-1.04 4.296-1.185a40.1 40.1 0 0 0 1.769-.262 123.884 123.884 0 0 1 28.008-1.849c2.075.102 4.935.398 5.827 1.809.54.844.54 2.499.54 3.83l.034 58.437c.011 4.507.011 9.014.011 13.526l.022 29.367c.001 2.396.001 4.872-.807 6.813zm175.465-41.969c-2.989.23-5.977.461-8.965.687-37.935 2.865-76.41 2.991-112.341 2.701a1716.854 1716.854 0 0 1-46.374-.979c-.001-2.227-.001-4.454-.004-6.681 4.058-.038 8.148-.097 12.2-.175 37.973-.671 76.551-2.46 114.664-5.318 17.018-1.277 34.283-2.877 50.979-4.425l5.711-.529c6.904-.635 13.826-1.705 20.52-2.739a901.62 901.62 0 0 1 7.652-1.154c-.857 3.505-1.36 7.178-.65 10.898.305 1.6.902 3.254 1.768 4.794-15.192.632-30.345 1.778-45.16 2.92zm100.467-9.265c-8.354 5.973-19.825 5.915-30.912 5.854l-1.015-.005c-4.463-.015-8.936.058-13.411.168-.018-.003-.034-.012-.052-.015-2.521-.45-4.327-3.24-4.809-5.764-.621-3.252.224-6.907 1.229-10.373.02-.07.023-.139.038-.209 1.034-.123 2.069-.25 3.098-.356 11.774-1.219 25.671-2.403 39.464-1.963 4.261.14 9.591.993 10.785 4.26l.004.011c1.007 2.725-1.459 6.282-4.419 8.392z" fill="#000000" opacity="1" data-original="#000000" class=""></path><path d="M198.046 147.66h50.315l-7.632 92.529a3.502 3.502 0 0 0 3.489 3.788h53.123a3.497 3.497 0 0 0 3.493-3.719l-5.717-91.001 48.794 1.381a3.48 3.48 0 0 0 2.763-1.229 3.497 3.497 0 0 0 .774-2.923l-7.447-39.222a3.5 3.5 0 0 0-3.213-2.84l-43.046-2.777-1.842-40.063c-.087-1.911-1.675-3.419-3.605-3.338l-31.774.993a3.5 3.5 0 0 0-3.385 3.3l-2.299 40.454-46.903.928a3.502 3.502 0 0 0-3.386 2.939l-5.958 36.739a3.5 3.5 0 0 0 3.456 4.061zm8.946-36.797 47.226-.935a3.5 3.5 0 0 0 3.425-3.301l2.301-40.491 25.124-.785 1.828 39.748a3.5 3.5 0 0 0 3.271 3.332l43.465 2.804 6.13 32.282-48.277-1.366a3.48 3.48 0 0 0-2.616 1.067 3.495 3.495 0 0 0-.976 2.651l5.724 91.108h-45.596l7.631-92.529a3.502 3.502 0 0 0-3.489-3.788H202.16z" fill="#000000" opacity="1" data-original="#000000" class=""></path></g></svg>